# xmcd CD database file
#
# Track frame offsets:
#	150
#	7877
#	43088
#	67454
#	99123
#	137937
#	155399
#	162431
#	175601
#	185045
#	196891
#	212990
#	236895
#	266606
#	297374
#
# Disc length: 4420 seconds
#
# Revision: 1
# Processed by: cddbd v1.5.1PL0 Copyright (c) Steve Scherf et al.
# Submitted via: CDex 1.51
#
DISCID=e011420f
DTITLE=Guy Marc Vadeleux Trio - Melting Pot
DYEAR=2005
DGENRE=Jazz
TTITLE0=Prélude
TTITLE1=Mazurka (en do mineur)
TTITLE2=Tou Sa Cé Pou Doudou
TTITLE3=Stick
TTITLE4=Penteng
TTITLE5=Giant Step
TTITLE6=Ballade Pou Titine
TTITLE7=Bèlè Nou
TTITLE8=Ti Bwa Nou
TTITLE9=Kompa (en sol mineur)
TTITLE10=Bouncing With Bud
TTITLE11=El Manicero
TTITLE12=Ballade (en sol mineur)
TTITLE13=Decouverte
TTITLE14=Latina
EXTD=YEAR: 2005
EXTT0=
EXTT1=
EXTT2=
EXTT3=
EXTT4=
EXTT5=
EXTT6=
EXTT7=
EXTT8=
EXTT9=
EXTT10=
EXTT11=
EXTT12=
EXTT13=
EXTT14=
PLAYORDER=
